<!DOCTYPE svg PUBLIC "-//W3C//DTD SVG 1.1//EN" "http://www.w3.org/Graphics/SVG/1.1/DTD/svg11.dtd">
<!-- Uploaded to: SVG Repo, www.svgrepo.com, Transformed by: SVG Repo Mixer Tools -->
<svg fill="#000000" xmlns="http://www.w3.org/2000/svg" width="800px" height="800px" viewBox="0 0 52 52" enable-background="new 0 0 52 52" xml:space="preserve">
<g id="SVGRepo_bgCarrier" stroke-width="0"/>
<g id="SVGRepo_tracerCarrier" stroke-linecap="round" stroke-linejoin="round"/>
<g id="SVGRepo_iconCarrier"> <path d="M9.6,31c-0.8,0.8-0.8,1.9,0,2.7l15,14.7c0.8,0.8,2,0.8,2.8,0l15.1-14.7c0.8-0.8,0.8-1.9,0-2.7l-2.8-2.7 c-0.8-0.8-2-0.8-2.8,0l-4.7,4.6C31.4,33.7,30,33.2,30,32V5c0-1-0.9-2-2-2h-4c-1.1,0-2,1.1-2,2v27c0,1.2-1.4,1.7-2.2,0.9l-4.7-4.6 c-0.8-0.8-2-0.8-2.8,0L9.6,31z"/> </g>
</svg>